<mxfile host="app.diagrams.net" modified="2023-08-30T15:46:23.061Z" agent="Mozilla/5.0 (Windows NT 10.0; Win64; x64) AppleWebKit/537.36 (KHTML, like Gecko) Chrome/116.0.0.0 Safari/537.36 Edg/116.0.1938.62" etag="J_43XxIOhs5vfbc85mSD" version="21.7.1" type="github">
  <diagram name="第 1 页" id="dj6TSy6KrakAutK6t_vl">
    <mxGraphModel dx="1397" dy="790" grid="0" gridSize="10" guides="0" tooltips="1" connect="1" arrows="1" fold="1" page="1" pageScale="1" pageWidth="827" pageHeight="1169" math="0" shadow="0">
      <root>
        <object label="" id="0">
          <mxCell />
        </object>
        <mxCell id="1" parent="0" />
        <mxCell id="PjvCkRNtrhwwqzVZTrrp-1" value="采集的数据" style="rounded=0;whiteSpace=wrap;html=1;" vertex="1" parent="1">
          <mxGeometry x="530" y="100" width="120" height="60" as="geometry" />
        </mxCell>
        <mxCell id="PjvCkRNtrhwwqzVZTrrp-7" value="" style="edgeStyle=orthogonalEdgeStyle;rounded=0;orthogonalLoop=1;jettySize=auto;html=1;" edge="1" parent="1" target="PjvCkRNtrhwwqzVZTrrp-2">
          <mxGeometry relative="1" as="geometry">
            <mxPoint x="350" y="260" as="sourcePoint" />
          </mxGeometry>
        </mxCell>
        <mxCell id="PjvCkRNtrhwwqzVZTrrp-8" value="目标检测" style="edgeLabel;html=1;align=center;verticalAlign=middle;resizable=0;points=[];" vertex="1" connectable="0" parent="PjvCkRNtrhwwqzVZTrrp-7">
          <mxGeometry x="0.24" y="-5" relative="1" as="geometry">
            <mxPoint x="5" y="-11" as="offset" />
          </mxGeometry>
        </mxCell>
        <mxCell id="PjvCkRNtrhwwqzVZTrrp-2" value="已检测图像" style="rounded=0;whiteSpace=wrap;html=1;" vertex="1" parent="1">
          <mxGeometry x="290" y="310" width="120" height="60" as="geometry" />
        </mxCell>
        <mxCell id="PjvCkRNtrhwwqzVZTrrp-3" value="目标的灰度值分布" style="rounded=0;whiteSpace=wrap;html=1;" vertex="1" parent="1">
          <mxGeometry x="290" y="420" width="120" height="60" as="geometry" />
        </mxCell>
        <mxCell id="PjvCkRNtrhwwqzVZTrrp-10" value="" style="endArrow=classic;html=1;rounded=0;" edge="1" parent="1">
          <mxGeometry width="50" height="50" relative="1" as="geometry">
            <mxPoint x="350.25" y="370" as="sourcePoint" />
            <mxPoint x="349.75" y="420" as="targetPoint" />
          </mxGeometry>
        </mxCell>
        <mxCell id="PjvCkRNtrhwwqzVZTrrp-11" value="提取目标特性" style="edgeLabel;html=1;align=center;verticalAlign=middle;resizable=0;points=[];" vertex="1" connectable="0" parent="PjvCkRNtrhwwqzVZTrrp-10">
          <mxGeometry x="-0.1845" y="1" relative="1" as="geometry">
            <mxPoint as="offset" />
          </mxGeometry>
        </mxCell>
        <mxCell id="PjvCkRNtrhwwqzVZTrrp-12" value="采集的数据" style="rhombus;whiteSpace=wrap;html=1;" vertex="1" parent="1">
          <mxGeometry x="300" y="200" width="100" height="60" as="geometry" />
        </mxCell>
        <mxCell id="PjvCkRNtrhwwqzVZTrrp-16" value="" style="rounded=0;whiteSpace=wrap;html=1;" vertex="1" parent="1">
          <mxGeometry x="320" y="780" width="120" height="60" as="geometry" />
        </mxCell>
        <mxCell id="PjvCkRNtrhwwqzVZTrrp-18" value="" style="endArrow=classic;html=1;rounded=0;" edge="1" parent="1">
          <mxGeometry width="50" height="50" relative="1" as="geometry">
            <mxPoint x="680" y="120.10909090909081" as="sourcePoint" />
            <mxPoint x="730" y="120" as="targetPoint" />
          </mxGeometry>
        </mxCell>
        <mxCell id="PjvCkRNtrhwwqzVZTrrp-20" value="背景图" style="rounded=0;whiteSpace=wrap;html=1;" vertex="1" parent="1">
          <mxGeometry x="470" y="530" width="120" height="170" as="geometry" />
        </mxCell>
        <mxCell id="PjvCkRNtrhwwqzVZTrrp-23" value="仿真数据&amp;nbsp; &amp;nbsp;" style="rounded=0;whiteSpace=wrap;html=1;" vertex="1" parent="1">
          <mxGeometry x="700" y="594" width="120" height="60" as="geometry" />
        </mxCell>
        <mxCell id="PjvCkRNtrhwwqzVZTrrp-24" value="" style="shape=singleArrow;whiteSpace=wrap;html=1;" vertex="1" parent="1">
          <mxGeometry x="600" y="602" width="90" height="44" as="geometry" />
        </mxCell>
        <mxCell id="PjvCkRNtrhwwqzVZTrrp-25" value="&lt;font style=&quot;font-size: 12px;&quot;&gt;&amp;nbsp; &amp;nbsp; &amp;nbsp; &amp;nbsp;卷积&lt;/font&gt;" style="rounded=0;whiteSpace=wrap;html=1;" vertex="1" parent="1">
          <mxGeometry x="290" y="530" width="120" height="170" as="geometry" />
        </mxCell>
        <mxCell id="PjvCkRNtrhwwqzVZTrrp-27" value="生成光斑" style="rounded=0;whiteSpace=wrap;html=1;" vertex="1" parent="1">
          <mxGeometry x="295" y="542" width="110" height="52" as="geometry" />
        </mxCell>
        <mxCell id="PjvCkRNtrhwwqzVZTrrp-28" value="" style="endArrow=classic;html=1;rounded=0;targetPerimeterSpacing=8;entryX=0.5;entryY=0;entryDx=0;entryDy=0;" edge="1" parent="1">
          <mxGeometry width="50" height="50" relative="1" as="geometry">
            <mxPoint x="350.25" y="480" as="sourcePoint" />
            <mxPoint x="350" y="542" as="targetPoint" />
          </mxGeometry>
        </mxCell>
        <mxCell id="PjvCkRNtrhwwqzVZTrrp-29" value="分析特性" style="edgeLabel;html=1;align=center;verticalAlign=middle;resizable=0;points=[];" vertex="1" connectable="0" parent="PjvCkRNtrhwwqzVZTrrp-28">
          <mxGeometry x="-0.1263" relative="1" as="geometry">
            <mxPoint as="offset" />
          </mxGeometry>
        </mxCell>
        <mxCell id="PjvCkRNtrhwwqzVZTrrp-30" value="艾里斑（PSF）" style="rounded=0;whiteSpace=wrap;html=1;" vertex="1" parent="1">
          <mxGeometry x="295" y="637" width="110" height="52" as="geometry" />
        </mxCell>
        <mxCell id="PjvCkRNtrhwwqzVZTrrp-33" value="" style="shape=doubleArrow;direction=south;whiteSpace=wrap;html=1;" vertex="1" parent="1">
          <mxGeometry x="346" y="594" width="4" height="41" as="geometry" />
        </mxCell>
        <mxCell id="PjvCkRNtrhwwqzVZTrrp-35" value="" style="shape=cross;whiteSpace=wrap;html=1;" vertex="1" parent="1">
          <mxGeometry x="420" y="602" width="40" height="40" as="geometry" />
        </mxCell>
      </root>
    </mxGraphModel>
  </diagram>
</mxfile>
